<svg version="1.2" xmlns="http://www.w3.org/2000/svg" viewBox="0 0 21 21" width="512" height="512">
	<title>error-round-svgrepo-com</title>
	<style>
		.s0 { fill: #ff00ff } 
	</style>
	<path class="s0" d="m18.4 10.3c0 3.2-1.9 6.1-4.9 7.3-2.9 1.2-6.3 0.5-8.6-1.7-2.3-2.3-2.9-5.7-1.7-8.6 1.2-3 4.1-4.9 7.3-4.9q1.6 0 3 0.6 1.5 0.6 2.6 1.7 1.1 1.1 1.7 2.6 0.6 1.4 0.6 3zm-6.8 0l3-3q0.3-0.3 0.3-0.6 0-0.3-0.3-0.6-0.2-0.2-0.5-0.2-0.3 0-0.6 0.2l-3 3.1-3-3.1q-0.3-0.2-0.6-0.2-0.3 0-0.6 0.2-0.2 0.3-0.2 0.6 0 0.3 0.2 0.6l3.1 3-3.1 3q-0.2 0.3-0.2 0.6 0 0.3 0.3 0.5 0.2 0.3 0.5 0.3 0.3 0 0.6-0.3l3-3 3 3q0.3 0.3 0.6 0.3 0.3 0 0.5-0.3 0.3-0.2 0.3-0.5 0-0.3-0.3-0.6z"/>
</svg>