<svg version="1.2" xmlns="http://www.w3.org/2000/svg" viewBox="0 0 24 24" width="512" height="512">
	<title>bell-notification-svgrepo-com</title>
	<style>
		.s0 { fill: #ff00ff } 
	</style>
	<path fill-rule="evenodd" class="s0" d="m5 7.8c0-3.8 3.2-6.8 7.1-6.8 3.9 0 6.9 3 6.9 6.7v2.2q0 0 0 0.1 0.1 0.2 0.4 0.5 0.1 0.3 0.4 0.7 0 0 0 0.1 0.3 0.4 0.6 0.8c0.6 1 0.8 2.2 0.4 3.2-0.3 1-1.1 1.9-2.4 2.1-1.5 0.3-3.6 0.6-6.3 0.6-2.5 0-4.6-0.2-6.2-0.5-1.5-0.2-2.4-1.2-2.8-2.4-0.3-1.2 0-2.5 0.8-3.5q0.5-0.7 0.9-1.2 0.1-0.2 0.2-0.3zm7.1-4.8c-2.9 0-5.1 2.2-5.1 4.8v2.4c0 0.4-0.2 0.6-0.2 0.8q-0.2 0.3-0.4 0.5c-0.2 0.4-0.6 0.9-0.9 1.3-0.5 0.6-0.6 1.3-0.4 1.8 0.1 0.5 0.5 0.8 1.1 1 1.5 0.2 3.5 0.4 5.9 0.4 2.6 0 4.5-0.2 5.9-0.5 0.5-0.1 0.8-0.4 0.9-0.8 0.2-0.4 0.1-1-0.2-1.5q-0.3-0.4-0.5-0.8-0.1-0.1-0.1-0.1-0.2-0.4-0.4-0.7-0.3-0.4-0.5-0.7c0-0.2-0.2-0.5-0.2-0.9v-2.3c0-2.6-2-4.7-4.9-4.7zm3.7 16.4c0.3 0.4 0.3 1.1-0.2 1.4-2 1.6-5.2 1.6-7.2 0-0.5-0.3-0.5-1-0.2-1.4 0.4-0.4 1-0.5 1.4-0.2 1.4 1.1 3.5 1.1 4.8 0 0.4-0.3 1-0.2 1.4 0.2zm-10.8-9.4q0 0 0 0.1 0-0.1 0-0.1z"/>
</svg>