<svg version="1.2" xmlns="http://www.w3.org/2000/svg" viewBox="0 0 24 24" width="512" height="512">
	<title>taxipeterika_idea</title>
	<style>
		.s0 { fill: none;stroke: #000000;stroke-linecap: round;stroke-linejoin: round;stroke-width: 2 } 
		.s1 { fill: none;stroke: #ff00ff;stroke-linecap: round;stroke-linejoin: round;stroke-width: 2 } 
	</style>
	<path id="primary" class="s0" d="m14.8 17h-3.8v-11q0-0.2 0.1-0.4 0.1-0.2 0.2-0.3 0.1-0.1 0.3-0.2 0.2-0.1 0.4-0.1h7"/>
	<path id="primary-2" class="s0" d="m21 13v3q0 0.2-0.1 0.4-0.1 0.2-0.2 0.3-0.1 0.1-0.3 0.2-0.2 0.1-0.4 0.1h-0.9"/>
	<path id="primary-3" class="s0" d="m4.9 17h-0.9q-0.2 0-0.4-0.1-0.2-0.1-0.3-0.2-0.1-0.1-0.2-0.3-0.1-0.2-0.1-0.4v-4.2q0-0.2 0-0.4 0.1-0.1 0.2-0.3 0.1-0.1 0.3-0.2 0.1-0.1 0.3-0.1l1.2-0.3 0.8-2.8q0-0.1 0.1-0.3 0.1-0.1 0.3-0.2 0.1-0.1 0.3-0.2 0.1 0 0.3 0h4.2v10h-1.9"/>
	<path id="secondary" class="s1" d="m15 17c0 0.8 0.5 1.5 1.2 1.8 0.8 0.4 1.6 0.2 2.2-0.4 0.6-0.6 0.8-1.4 0.4-2.2-0.3-0.7-1-1.2-1.8-1.2q-0.4 0-0.8 0.2-0.3 0.1-0.6 0.4-0.3 0.3-0.4 0.6-0.2 0.4-0.2 0.8zm-10 0c0 0.8 0.5 1.5 1.2 1.8 0.8 0.4 1.6 0.2 2.2-0.4 0.6-0.6 0.8-1.4 0.4-2.2-0.3-0.7-1-1.2-1.8-1.2q-0.4 0-0.8 0.2-0.3 0.1-0.6 0.4-0.3 0.3-0.4 0.6-0.2 0.4-0.2 0.8zm10-8h6"/>
</svg>